# xmcd
#
# Track frame offsets:
#	150
#	15351
#	26754
#	38435
#	57072
#	68033
#	77851
#	89954
#	110444
#	123583
#	137080
#	148542
#	159312
#
# Disc length: 2233 seconds
#
# Revision: 0
# Processed by: cddbd v1.5.2PL0 Copyright (c) Steve Scherf et al.
# Submitted via: dBpowerAMP V4.0
#
DISCID=a808b70d
DTITLE=Stringbeans - Handpicked
DYEAR=2006
DGENRE=Bluegrass
TTITLE0=Our Sunshine
TTITLE1=Lonesome wind blues
TTITLE2=Little red wagon
TTITLE3=Lord don't forsake me
TTITLE4=Won't back down
TTITLE5=Top of the morning
TTITLE6=Blue train
TTITLE7=Annabelle
TTITLE8=Travelling prayer
TTITLE9=Washington county
TTITLE10=I've just seen a face
TTITLE11=I still carry you around
TTITLE12=Tombstone junction
EXTD=\n
EXTT0=
EXTT1=
EXTT2=
EXTT3=
EXTT4=
EXTT5=
EXTT6=
EXTT7=
EXTT8=
EXTT9=
EXTT10=
EXTT11=
EXTT12=
PLAYORDER=
